<?xml version="1.0" encoding="UTF-8"?>
<svg width="584px" height="742px" viewBox="0 0 584 742" version="1.1" xmlns="http://www.w3.org/2000/svg" xmlns:xlink="http://www.w3.org/1999/xlink">
    <!-- Generator: Sketch 56.3 (81716) - https://sketch.com -->
    <title>Craving Monster</title>
    <desc>Created with Sketch.</desc>
    <g id="Page-1" stroke="none" stroke-width="1" fill="none" fill-rule="evenodd">
        <g id="Craving-Monster" transform="translate(0.000000, 1.000000)">
            <path d="M410,417 L410,608 L409.985576,608 C409.456567,626.315156 394.443198,641 376,641 C357.556802,641 342.543433,626.315156 342.014424,608 L342,608 L342,417 L330,417 L330,686 C330,715.823376 305.823376,740 276,740 C246.176624,740 222,715.823376 222,686 L222,417 L210,417 L210,607 C210,627.434536 193.434536,644 173,644 C152.565464,644 136,627.434536 136,607 L136,167 L136,156 L136.388589,156 C142.297486,68.8563248 214.857615,0 303.5,0 C392.142376,0 464.702499,68.8563114 470.61141,155.999975 L471,156 L471,161 L471,644 C471,657.254834 460.254834,668 447,668 C433.745166,668 423,657.254834 423,644 L423,417 L410,417 Z" id="Combined-Shape" stroke="#979797" fill="#F7B500"></path>
            <g id="Group-2" transform="translate(0.000000, 120.000000)">
                <rect id="Rectangle" stroke="#F7B500" stroke-width="10" fill="#FFFFFF" x="5" y="5" width="574" height="225" rx="112.5"></rect>
                <polygon id="Star" stroke="#979797" fill="#000000" points="293 202.75279 215.241814 218.787269 172.833377 189.457331 84.4131175 187.105516 90.818807 153.792166 19.809282 133.800743 72.9953377 107.080735 41.9415693 75.7968386 125.021794 64.1535864 143.783134 31.5096326 230.380144 38.6397863 293 15 355.619856 38.6397863 442.216866 31.5096326 460.978206 64.1535864 544.058431 75.7968386 513.004662 107.080735 566.190718 133.800743 495.181193 153.792166 501.586883 187.105516 413.166623 189.457331 370.758186 218.787269"></polygon>
            </g>
            <text id="CRAVING-BUTTON" fill="#D8D8D8" font-family="Futura-Medium, Futura" font-size="60" font-weight="400" line-spacing="60" letter-spacing="20">
                <tspan x="79" y="246">CRAVING </tspan>
                <tspan x="108.233398" y="306">BUTTON</tspan>
            </text>
            <ellipse id="Oval" fill="#000000" cx="248" cy="98" rx="25" ry="28"></ellipse>
            <ellipse id="Oval-Copy-4" fill="#000000" cx="344" cy="98" rx="25" ry="28"></ellipse>
        </g>
    </g>
</svg>