<?xml version="1.0" encoding="UTF-8"?>
<svg width="584px" height="742px" viewBox="0 0 584 742" version="1.1" xmlns="http://www.w3.org/2000/svg" xmlns:xlink="http://www.w3.org/1999/xlink">
    <!-- Generator: Sketch 56.3 (81716) - https://sketch.com -->
    <title>CravingMonster</title>
    <desc>Created with Sketch.</desc>
    <g id="Page-1" stroke="none" stroke-width="1" fill="none" fill-rule="evenodd">
        <g id="Artboard" transform="translate(-1376.000000, -87.000000)">
            <g id="CravingMonster" transform="translate(1376.000000, 88.000000)">
                <path d="M410,417 L410,608 L409.985576,608 C409.456567,626.315156 394.443198,641 376,641 C357.556802,641 342.543433,626.315156 342.014424,608 L342,608 L342,417 L330,417 L330,686 C330,715.823376 305.823376,740 276,740 C246.176624,740 222,715.823376 222,686 L222,417 L210,417 L210,607 C210,627.434536 193.434536,644 173,644 C152.565464,644 136,627.434536 136,607 L136,167 L136,156 L136.388589,156 C142.297486,68.8563248 214.857615,0 303.5,0 C392.142376,0 464.702499,68.8563114 470.61141,155.999975 L471,156 L471,161 L471,644 C471,657.254834 460.254834,668 447,668 C433.745166,668 423,657.254834 423,644 L423,417 L410,417 Z" id="Body" stroke="#979797" fill="#F7B500"></path>
                <g id="Mouth" transform="translate(0.000000, 120.000000)">
                    <rect id="Rectangle" stroke="#F7B500" stroke-width="10" fill="#FFFFFF" x="5" y="5" width="574" height="288" rx="113"></rect>
                    <polygon id="Star" stroke="#979797" fill="#000000" points="293 257.301618 215.241814 277.653073 172.833377 240.426612 84.4131175 237.441617 90.818807 195.159288 19.809282 169.785559 72.9953377 135.871702 41.9415693 96.1652183 125.021794 81.3872442 143.783134 39.9545337 230.380144 49.0043442 293 19 355.619856 49.0043442 442.216866 39.9545337 460.978206 81.3872442 544.058431 96.1652183 513.004662 135.871702 566.190718 169.785559 495.181193 195.159288 501.586883 237.441617 413.166623 240.426612 370.758186 277.653073"></polygon>
                    <text id="CRAVING-BUTTON" fill="#D8D8D8" font-family="Futura-Medium, Futura" font-size="60" font-weight="400" line-spacing="60" letter-spacing="20">
                        <tspan x="79" y="156">CRAVING </tspan>
                        <tspan x="108.233398" y="216">BUTTON</tspan>
                    </text>
                </g>
                <g id="Eyes" transform="translate(223.000000, 70.000000)" fill="#000000">
                    <ellipse id="Oval" cx="25" cy="28" rx="25" ry="28"></ellipse>
                    <ellipse id="Oval-Copy-4" cx="121" cy="28" rx="25" ry="28"></ellipse>
                </g>
            </g>
        </g>
    </g>
</svg>