<?xml version="1.0" encoding="UTF-8"?>
<svg width="404px" height="742px" viewBox="0 0 404 742" version="1.1" xmlns="http://www.w3.org/2000/svg" xmlns:xlink="http://www.w3.org/1999/xlink">
    <!-- Generator: Sketch 56.3 (81716) - https://sketch.com -->
    <title>StarMonster</title>
    <desc>Created with Sketch.</desc>
    <g id="Page-1" stroke="none" stroke-width="1" fill="none" fill-rule="evenodd">
        <g id="Artboard" transform="translate(-141.000000, -69.000000)">
            <g id="StarMonster" transform="translate(141.000000, 70.000000)">
                <path d="M311,417 L311,608 L310.985576,608 C310.456567,626.315156 295.443198,641 277,641 C258.556802,641 243.543433,626.315156 243.014424,608 L243,608 L243,417 L231,417 L231,686 C231,715.823376 206.823376,740 177,740 C147.176624,740 123,715.823376 123,686 L123,417 L111,417 L111,607 C111,627.434536 94.4345357,644 74,644 C53.5654643,644 37,627.434536 37,607 L37,167 L37,156 L37.3885886,156 C43.2974865,68.8563248 115.857615,0 204.5,0 C293.142376,0 365.702499,68.8563114 371.61141,155.999975 L372,156 L372,161 L372,644 C372,657.254834 361.254834,668 348,668 C334.745166,668 324,657.254834 324,644 L324,417 L311,417 Z" id="Body" stroke="#979797" fill="#4DA421"></path>
                <g id="Mouth" transform="translate(0.000000, 157.000000)">
                    <rect id="Rectangle" stroke="#4DA421" stroke-width="10" fill="#FFFFFF" x="5" y="5" width="394" height="216" rx="108"></rect>
                    <polygon id="Star" stroke="#979797" fill="#000000" points="202 194.531529 148.189082 209.949297 118.841213 181.747433 57.6518313 179.486073 62.0847541 147.454006 12.9441046 128.231484 49.7503967 102.539168 28.2602889 72.4584987 85.7542126 61.2630638 98.7376039 29.8746467 158.665245 36.7305638 202 14 245.334755 36.7305638 305.262396 29.8746467 318.245787 61.2630638 375.739711 72.4584987 354.249603 102.539168 391.055895 128.231484 341.915246 147.454006 346.348169 179.486073 285.158787 181.747433 255.810918 209.949297"></polygon>
                    <text id="STAR-TIME" fill="#D8D8D8" font-family="Futura-Medium, Futura" font-size="60" font-weight="400" line-spacing="60" letter-spacing="20">
                        <tspan x="97" y="111">STAR</tspan>
                        <tspan x="99.3144531" y="171">TIME</tspan>
                    </text>
                </g>
                <g id="Eyes" transform="translate(124.000000, 70.000000)" fill="#000000">
                    <ellipse id="Oval" cx="25" cy="28" rx="25" ry="28"></ellipse>
                    <ellipse id="Oval-Copy-4" cx="121" cy="28" rx="25" ry="28"></ellipse>
                </g>
            </g>
        </g>
    </g>
</svg>